<svg xmlns="http://www.w3.org/2000/svg" xml:space="preserve" width="969.483" height="326.556" style="shape-rendering:geometricPrecision;text-rendering:geometricPrecision;image-rendering:optimizeQuality;fill-rule:evenodd;clip-rule:evenodd" viewBox="0 0 25636.63 8635.33">
  <defs>
    <style>
      .fil0,.fil1{fill:#093ab9}
    </style>
  </defs>
  <g id="Слой_x0020_1">
    <g id="_1400251845696">
      <path class="fil0" d="M9637.13 6683.11h1563.58l426.43-1062.51h2328.01l426.43 1062.51H16527a4720.998 4720.998 0 0 1-240.83-58.35c-346.84-93.79-705.89-227.21-1005.2-429.63l502.46-1128.61c261.36 165.87 548.19 289.93 842.79 383.36 311.13 98.63 632.38 152.66 959.05 152.66 167.49 0 356.28-10.49 517.52-58.89 101.68-30.49 214.85-78.49 288.13-158.1 61.01-66.33 91.57-144.82 91.57-234.93 0-133.07-63.87-231.75-174.93-302.43-134.12-85.34-293.99-141.14-447.19-180.53-200.76-51.6-403.02-97.74-605.78-140.67-224.24-47.5-445.66-107.8-663.38-179.53-212.26-69.92-415.83-163.47-603.98-284.42-183.36-117.89-330.67-272.08-443.24-458.82-129.58-214.99-170.92-471.59-170.92-719.28 0-322.89 87.44-619.47 268.41-886.96 197.69-292.23 487.44-495.25 805.84-638.32 121.8-54.71 249.26-98.18 379.95-132.25h-4781.83l-2408.31 5455.7zm9157.55-5455.7h4425.85l2416.1 5455.7H24041.8l-426.43-1062.51h-2328.01l-426.43 1062.51h-2317.08c130.47-34.02 257.53-77.42 378.59-132.23 318.51-144.15 605.36-348.74 801.92-642.19 177.44-264.89 268.44-556.41 268.44-875.26 0-245.21-41.08-497.62-167.07-711.52-110.36-187.34-256.47-341.2-439.3-458.75-187.83-120.73-391.3-212.99-603.91-280.5-218.12-69.3-439.55-128.21-663.45-175.64-203.7-43.12-407.04-88.24-609.55-136.72-152.03-36.42-314.17-89.11-447.32-172.74-107.23-67.33-171.04-161.74-171.04-290.73 0-94.7 28.83-179.59 87.36-254.09 69.19-88.09 180.44-142.62 284.29-177.95 159.88-54.36 350.01-66.75 517.76-66.75 251.82 0 501.48 38.9 743.97 105.7 267.42 73.67 524.33 182.25 768.41 313.52l471.56-1136.38c-286.09-164.27-598.28-277.13-918.99-351.89-16.95-3.95-33.89-7.81-50.85-11.55zm-5291.99 3265.71h-1423.05l711.52-1772.91 711.52 1772.91zm9660.21 0h-1423.05l711.52-1772.91 711.52 1772.91zM10085.01 8211.01v394.16h-445.86v-1527.1h698.94c122.47 0 247.83 17.38 360.43 67.61 96.89 43.23 177.78 107.13 235.72 196.34 59.42 91.5 83.4 195.35 83.4 303.6 0 107.35-24.22 210.01-83.42 300.37-58.26 88.91-139.34 152.65-235.66 196.3-112.49 50.98-237.8 68.71-360.47 68.71h-253.08zm4240.9-86.23 329.69 480.39h-480.17l-273.36-400.63h-217.97v400.63h-445.87v-1527.1h698.95c122.47 0 247.82 17.38 360.42 67.61 96.89 43.23 177.78 107.13 235.72 196.34 59.43 91.5 83.4 195.35 83.4 303.6 0 107-24.04 209.44-83.44 299.33-52.21 79-123.08 137.89-207.36 179.82zm3309.42 510.55c-115.37 0-229.25-17.69-337.3-58.78-100.24-38.13-191.15-93.18-269.23-166.79-76.17-71.85-135.61-156.06-177.74-251.92-44.07-100.26-63.28-207.01-63.28-316.22 0-109.21 19.22-215.95 63.28-316.2 42.13-95.87 101.57-180.08 177.74-251.93 78.08-73.61 168.99-128.66 269.23-166.79 108.05-41.09 221.94-58.78 337.3-58.78 115.6 0 230.15 17.34 338.38 58.8 99.6 38.15 189.77 93.22 267.06 166.79 75.73 72.1 135.06 156.37 177.73 251.85 44.75 100.13 64.37 206.88 64.37 316.26 0 109.75-19.75 216.77-64.37 317.33-42.42 95.66-101.61 180.14-177.77 251.88-77.47 73.03-167.69 127.65-267.02 165.7-108.23 41.46-222.79 58.8-338.38 58.8zm3423.92-803.35-532.82-753.9h504.12l297.21 428.41 291.38-428.41h484.99l-531.79 738.03 566.21 789.07h-515.13l-307.39-458.65-302.54 458.65h-510.92l556.7-773.2zm3544.84 219.4-582.49-973.3h472.77l351.27 589.07 352.8-589.07h436.14l-584.63 979.98v547.13h-445.87v-553.8zm-14519.08-195.75h227.23c65.6 0 141.77-10.55 192.79-55.72 45.51-40.28 62.43-94.52 62.43-154.27 0-60.21-16.42-115.72-62.43-156.42-51.02-45.16-127.19-55.74-192.79-55.74h-227.23v422.16zm3599.08 0h227.23c65.59 0 141.77-10.55 192.79-55.72 45.51-40.28 62.42-94.52 62.42-154.27 0-60.21-16.41-115.72-62.42-156.42-51.02-45.16-127.2-55.74-192.79-55.74h-227.23v422.16zm3951.24 407.07c53.96 0 106.74-9.1 156.81-29.44 47.9-19.44 90.05-47.71 125.89-84.95 37.11-38.56 64.61-83.87 84.1-133.61 21.66-55.23 30.57-113.93 30.57-173.07 0-59.33-8.55-118.75-30.55-174.1-19.61-49.35-47.23-94.24-84.12-132.57-35.84-37.24-77.99-65.51-125.89-84.95-50.07-20.34-102.85-29.44-156.81-29.44-53.96 0-106.74 9.1-156.82 29.44-47.92 19.44-90.05 47.71-125.88 84.95-36.89 38.33-64.53 83.19-84.15 132.57-21.98 55.35-30.54 114.78-30.54 174.1 0 59.15 8.92 117.84 30.56 173.07 19.48 49.73 47.02 95.05 84.13 133.61 35.83 37.24 77.96 65.51 125.88 84.95 50.08 20.34 102.86 29.44 156.82 29.44z"/>
      <g>
        <path class="fil1" d="M2829.19 3413.97c-19.24-326.67-1.84-707.54-2.03-1040.25-.18-330.02 55.17-579.56 198.7-829.33 222.59-387.3 667.59-758.37 1305.26-758.37 640.85 0 1087.93 374.66 1309.85 766.47 143.29 252.99 194.42 500.09 194.08 834.08-.04 50.63.32 102.36.91 154.84h784.5c-.06-155.22-1.29-293.61-5.47-387.87-20.44-461.56-171.88-798.25-366.76-1118.55-135.48-222.71-340.6-425.91-541.95-576.64-72.82-54.51-132.39-90.6-216.12-143.63-676.57-428.47-1654.18-412.34-2326.13 5.07-210.24 130.59-354.87 239.61-516.82 421.72-359.15 403.87-566.96 814.25-600.54 1423.22-21.31 386.41 14.33 1207.52-13.64 1460.67-155.78 104.26-513.26 82.37-535.08 407.37-19.51 290.57-1.06 651.71-1.06 950 0 521.84.13 1043.66.07 1565.5 29.51 24.04 60.73 46.29 92.1 66.92 223 146.64 470.59 258.56 731.68 343.71-111.42-281.59-164.88-584.79-142.64-912.81 26.08-384.36 139.48-717.38 328.46-1016.79 73.42-116.27 145.72-206.2 233.19-307.23l67.6-67.32c420.15-422.48 1010.9-667.69 1650.55-631.2 305.02 17.4 612.09 104.74 848.2 229.08 128.79 67.84 229.82 131.79 331.6 208.7 27.72 20.94 49.03 39.07 75.6 59.53 50.71 39.05 175.28 160.04 206.83 198.43l64.11 70.77c349.49 408.16 534.16 963.39 503.28 1515.43-11.78 210.61-54.32 414.09-123.47 605.63 220.12-64.32 445.65-143.56 645.5-245.96 36.36-18.63 96.91-51.94 155.74-90.98-.05-534.75-.01-1069.52.03-1604.26.02-283.49 23.04-678.25-1.92-948.26-26.32-284.87-317.91-292.69-487.11-370.69l-.19.2-916.12-245.39c-94.77-14.01-198.34-39.99-286.22-54.58-620.94-103.15-1311.56-121.17-1935.05-47.74l-709.54 110.52zm1389.97 3802.15.16-123.48c-153.42-9.17-395.97 62.54-526.84 105.02 178.61 11.23 355.17 16.66 526.68 18.46zm693.84-27.19c-119.4-43.67-373.13-89.24-466.7-93.92l-.17 121.01c151.64-2.7 308.29-12.05 466.87-27.09zm-693.74-321.85c-54.71 7.86-114.73 9.07-171.52 16.48-187.98 24.52-280.07 59.2-452.98 111.71-38.49-69.86-87.56-237.62-108.2-323.29-29.3-121.7-51.61-250.03-57.48-380.07l790.21 1.68-.03 573.49zm228.67 2.29-5.66-17.87c-.15-1.23.1-14.18.13-16.4.63-110.36-5.69-502.29 2.53-542.78 23.82-7.05 733.38-8.36 790.24-1.94 4.23 20.13 2.87 28.49-4.1 44.07 1.54 140.02-106.21 592.12-167.83 671.64-34.31-6.56-100.18-34.83-140.45-46.98-49.41-14.94-97.18-27.91-148.76-39.78-158.11-36.33-228-30.74-326.11-49.95zm-1129.86 35.84c18.21 53.93 52.77 128.62 65.25 178.32-7.43 5.94-61.65 34.32-131.74 73.81-218.39-26.83-436.21-64.7-648.06-117.47-19.78-38.7-36.71-74.73-49.47-105.37-40.68-97.76-72.87-192.63-99.27-300.18-15.08-61.4-60.88-287.43-47.68-342.35l793.98.93c11.76 64.44 13.15 150.08 23.29 218.83 18.91 128.79 52.45 271.28 93.71 393.49zm1955.52 195.06c11.46-47.01 44.92-113.54 62.02-165.77 60.94-186.11 103.09-352.65 119.81-555.38 6-72.7-3.9-85.11 23.6-87.64l780.6.87c15.55 148.78-85.6 496.25-149.42 644.07-7.3 16.89-14.61 33.28-21.97 49.25-235.77 58.94-486.25 109.83-739.04 148.74-29.2-15.45-55.1-27.43-75.6-34.14zM4452.68 5486.5c45.1-9.67 115.16-11.67 165.96-19.5 106.31-16.31 206.7-39.43 307.73-71.28 39.77-12.52 105.96-40.26 142.27-47 33.27 52.21 93.23 259.74 110.16 333.32 46.56 202.54 32.25 211.14 57.77 379.35-9.42 8.29 16.28 6.71-16.62 7.53-83.98 1.03-749.59 4.52-776.49-3.86l-.07-564.57c1.81-22.97-1.2-7.64 9.29-13.99zM3429.6 6064.36c-8.35-130 57.74-409.43 101.84-545.02l56.02-160.55c46.86 11.71 101.55 33.61 148.68 47.59 185.26 54.87 291.15 62.99 483.59 82.58-3.15 158.15 6.95 443.51-1.81 576.61-133.17 2.92-678.28 5.84-788.32-1.22zM2405.91 6066c-8.87-74.75 32.3-271.5 50.19-347.33 23.27-98.67 58.74-205.75 98.41-295.61 89.21-202.25 184.99-350.86 304.37-490.51 22.12 12.2 42.68 31.89 61.67 47.01 86.99 69.26 368.68 262.49 458.18 286.08-10.99 48.97-46.81 130.79-63.87 182.84-20.52 62.58-36.89 125.62-52.51 190.17-36.3 150-43.13 271.59-61.28 427.33h-795.15zm2874.64-808.63c13.69-14.21 113.78-62.49 138.33-76.64 127.49-73.64 206.95-127.97 322.45-212.37 17.26-12.62 41.72-36.14 64.75-43.15 10.6 21 28.98 40.49 43.59 59.03l122.72 174.5c145.6 224.95 297.57 643.44 287.95 907.37l-798.35-2.66c-9.95-157.21-28.91-286.75-62.65-434.48-42.42-185.84-76.35-230.93-118.8-371.6zm-1598.85-98.5c37.16-96.2 182.25-320.56 244.94-405.92 24.32-33.09 43.39-61.17 68.77-93.36l184.36-220.94c12.91-15.17 26.9-23.95 39.02-37.74l-.66 865.01c-145.89 6.75-414.69-59.83-536.43-107.05zM4445.08 4403l80.39 84.76c112.56 119.68 412.3 527.57 447.87 656.28-40.07 9.7-82.24 27.64-123.53 40.53-130.61 40.77-265.58 65.98-404.67 78.37l-.06-859.93zm742.43 644.21c-15.1-13.86-47.26-82.99-60.39-107.73-20.02-37.78-41.28-72.7-61.56-105.86-66.33-108.38-272.02-403.32-369.48-500.48-9.84-9.83-10.96-9.25-19.11-18.51-9.54-10.87-29.1-32.39-33.36-43.23 199.01 31.81 396.5 98.91 559.08 182 87.78 44.86 159.88 90.23 232.44 140.21 58.05 40.01 160.92 116.49 204.16 166.69-43.98 47.44-261.99 183.32-331.29 223.16-34.16 19.62-85.28 50.43-120.49 63.75zM3017.3 4765.67c9.43-12.03 12.43-12.41 24.58-22.28 22.93-18.61 30.52-31.48 75.46-65.05l107.3-81.74c203.98-148.87 537.97-291.7 796.64-324.5l-81.75 93.78c-48.48 51.61-190.73 238.55-220.07 282.44-86.95 130.12-175.57 263.95-249.63 419-46.4-12.23-202.93-110.94-241.1-136.62-49.92-33.61-179.17-125.09-211.42-165.02z"/>
        <path class="fil1" d="M989.56 5887.23s-632.28 678.28 206.94 1230.1c839.21 551.81 1965.81 701.27 3161.41 701.27s3241.9-448.34 3494.81-1046.15c252.91-597.82-241.41-873.71-241.41-873.71s1149.58 413.85 1046.13 1207.09c-103.45 793.24-2046.27 1551.97-4368.49 1528.98C1966.73 8611.82 702.13 8014 219.31 7508.19c-482.83-505.81-57.46-1092.12 218.44-1299.06 275.9-206.94 551.81-321.89 551.81-321.89z"/>
      </g>
    </g>
  </g>
</svg>
