<svg xmlns="http://www.w3.org/2000/svg" xml:space="preserve" width="510.883" height="514.809" style="shape-rendering:geometricPrecision;text-rendering:geometricPrecision;image-rendering:optimizeQuality;fill-rule:evenodd;clip-rule:evenodd" viewBox="0 0 13504.17 13607.92">
  <defs>
    <style>
      .fil0,.fil1{fill:#093ab9}
    </style>
  </defs>
  <g id="Слой_x0020_1">
    <path class="fil0" d="M-.01 11960.18h1319.74l359.93-896.8h1964.92l359.93 896.8H5815.32c-68.05-14.63-135.84-31.02-203.27-49.25-292.74-79.16-595.8-191.78-848.43-362.61l424.09-952.6c220.6 140 462.69 244.71 711.35 323.57 262.61 83.24 533.75 128.84 809.47 128.84 141.36 0 300.71-8.85 436.8-49.69 85.83-25.75 181.35-66.25 243.2-133.45 51.49-55.99 77.29-122.23 77.29-198.29 0-112.31-53.91-195.6-147.65-255.27-113.19-72.03-248.14-119.13-377.45-152.36-169.44-43.56-340.15-82.5-511.3-118.74-189.27-40.09-376.16-90.99-559.91-151.52-179.16-59.02-350.98-137.98-509.79-240.07-154.76-99.51-279.09-229.64-374.11-387.26-109.38-181.46-144.26-398.03-144.26-607.1 0-272.53 73.8-522.86 226.55-748.62 166.85-246.65 411.42-418.01 680.16-538.76 102.8-46.18 210.38-82.87 320.69-111.62H2032.7L-.01 11960.2zM7729.3 7355.36H11464.9l2039.28 4604.82h-1346.11l-359.92-896.8H9833.22l-359.93 896.8h-1955.7c110.11-28.71 217.36-65.35 319.54-111.6 268.84-121.67 510.95-294.35 676.85-542.04 149.77-223.58 226.57-469.63 226.57-738.75 0-206.97-34.67-420.01-141-600.55-93.15-158.12-216.47-287.98-370.78-387.2-158.53-101.9-330.27-179.77-509.73-236.75-184.09-58.49-370.98-108.22-559.97-148.25-171.93-36.4-343.56-74.49-514.48-115.4-128.32-30.74-265.18-75.22-377.56-145.8-90.51-56.84-144.36-136.52-144.36-245.38 0-79.93 24.34-151.58 73.73-214.46 58.4-74.35 152.29-120.38 239.96-150.2 134.94-45.89 295.42-56.35 437-56.35 212.56 0 423.27 32.83 627.95 89.21 225.7 62.18 442.55 153.83 648.56 264.63l398.02-959.15c-241.47-138.65-504.98-233.91-775.67-297.01-14.3-3.34-28.6-6.59-42.92-9.76zm-4466.63 2756.38H2061.56l600.55-1496.4 600.55 1496.4zm8153.57 0h-1201.11l600.55-1496.4 600.55 1496.4zM378.03 13249.79v332.69H1.7v-1288.94h589.93c103.37 0 209.18 14.67 304.22 57.07 81.77 36.49 150.06 90.42 198.95 165.72 50.16 77.23 70.4 164.88 70.4 256.25 0 90.6-20.44 177.26-70.41 253.53-49.17 75.04-117.62 128.84-198.91 165.68-94.94 43.03-200.71 57.99-304.25 57.99H378.02zm3579.47-72.78 278.26 405.47h-405.28l-230.72-338.15h-183.97v338.15h-376.33v-1288.94h589.93c103.37 0 209.17 14.67 304.21 57.07 81.78 36.49 150.06 90.42 198.96 165.72 50.15 77.23 70.39 164.88 70.39 256.25 0 90.3-20.29 176.78-70.42 252.65-44.08 66.68-103.89 116.39-175.03 151.77zm2793.27 430.92c-97.37 0-193.49-14.94-284.7-49.61-84.6-32.18-161.34-78.64-227.23-140.78-64.3-60.64-114.47-131.71-150.03-212.64-37.18-84.62-53.41-174.7-53.41-266.9 0-92.17 16.22-182.27 53.41-266.88 35.56-80.91 85.73-151.99 150.03-212.63 65.9-62.13 142.63-108.61 227.23-140.79 91.2-34.68 187.33-49.61 284.7-49.61 97.57 0 194.26 14.64 285.61 49.63 84.08 32.2 160.18 78.68 225.41 140.78 63.92 60.86 113.99 131.98 150.01 212.57 37.77 84.52 54.35 174.61 54.35 266.93 0 92.64-16.67 182.96-54.35 267.85-35.8 80.73-85.76 152.03-150.04 212.6-65.39 61.63-141.53 107.74-225.38 139.86-91.34 34.99-188.04 49.62-285.61 49.62zm2889.92-678.06-449.72-636.32h425.49l250.85 361.59 245.93-361.59h409.35l-448.86 622.92 477.9 666.01h-434.78l-259.45-387.12-255.37 387.12H9170.8l469.88-652.61zm2991.97 185.18-491.64-821.5h399.04l296.49 497.19 297.78-497.19h368.11l-493.45 827.14v461.8h-376.33v-467.43zM378.02 12949.83h191.8c55.37 0 119.67-8.91 162.72-47.03 38.41-34 52.69-79.77 52.69-130.21 0-50.82-13.87-97.67-52.69-132.03-43.06-38.11-107.36-47.04-162.72-47.04h-191.8v356.32zm3037.76 0h191.8c55.36 0 119.66-8.91 162.71-47.03 38.42-34 52.69-79.77 52.69-130.21 0-50.82-13.86-97.67-52.69-132.03-43.06-38.11-107.36-47.04-162.71-47.04h-191.8v356.32zm3334.98 343.58c45.55 0 90.09-7.68 132.36-24.85 40.43-16.4 76.01-40.27 106.25-71.71 31.32-32.54 54.54-70.79 70.99-112.76 18.27-46.62 25.8-96.16 25.8-146.09 0-50.07-7.2-100.22-25.78-146.94-16.55-41.66-39.87-79.54-71.01-111.89-30.24-31.44-65.82-55.3-106.25-71.7-42.27-17.16-86.82-24.86-132.36-24.86-45.54 0-90.09 7.69-132.36 24.86-40.44 16.4-76 40.26-106.25 71.7-31.14 32.35-54.47 70.21-71.02 111.89-18.55 46.72-25.79 96.87-25.79 146.94 0 49.93 7.52 99.47 25.81 146.09 16.43 41.97 39.68 80.22 71 112.76 30.25 31.44 65.81 55.31 106.25 71.71 42.27 17.16 86.83 24.85 132.36 24.85z"/>
    <path class="fil1" d="M5595.26 2627.97c-14.81-251.46-1.41-544.64-1.56-800.75-.14-254.04 42.46-446.13 152.95-638.39C5918 890.69 6260.54 605.06 6751.4 605.06c493.31 0 837.45 288.4 1008.27 590.01 110.3 194.73 149.67 384.95 149.41 642.03-.04 38.97.24 78.79.7 119.2h603.88c-.04-119.49-.99-226-4.21-298.57-15.73-355.29-132.31-614.47-282.32-861.03-104.29-171.43-262.19-327.86-417.18-443.87-56.05-41.96-101.9-69.74-166.36-110.56-520.8-329.82-1273.33-317.41-1790.57 3.9-161.83 100.52-273.17 184.44-397.83 324.63-276.48 310.88-436.43 626.78-462.28 1095.55-16.4 297.45 11.03 929.51-10.51 1124.38-119.92 80.25-395.08 63.4-411.89 313.58-15.02 223.67-.81 501.66-.81 731.28 0 401.7.1 803.38.05 1205.08 22.72 18.5 46.75 35.64 70.89 51.51 171.66 112.88 362.24 199.03 563.23 264.59-85.77-216.77-126.92-450.16-109.8-702.66 20.07-295.88 107.38-552.22 252.84-782.7 56.52-89.49 112.17-158.72 179.5-236.49l52.05-51.82c323.41-325.21 778.14-513.97 1270.54-485.87 234.79 13.39 471.17 80.62 652.91 176.33 99.14 52.23 176.91 101.45 255.25 160.67 21.35 16.11 37.74 30.06 58.2 45.82 39.02 30.06 134.92 123.19 159.2 152.74l49.35 54.48c269.03 314.2 411.19 741.58 387.41 1166.53-9.06 162.12-41.81 318.74-95.04 466.2 169.44-49.52 343.05-110.51 496.88-189.34 27.99-14.34 74.6-39.98 119.89-70.04-.04-411.63-.01-823.27.02-1234.91.02-218.22 17.73-522.09-1.47-729.94-20.26-219.29-244.73-225.29-374.97-285.35l-.14.15-705.2-188.89c-72.95-10.79-152.67-30.79-220.32-42.02-477.98-79.4-1009.6-93.27-1489.54-36.75l-546.18 85.08zm1069.95 2926.78.12-95.05c-118.1-7.06-304.8 48.13-405.54 80.84 137.5 8.64 273.41 12.82 405.42 14.21zm534.1-20.94c-91.91-33.61-287.22-68.69-359.25-72.29l-.14 93.15c116.73-2.08 237.31-9.28 359.39-20.86zm-534.02-247.74c-42.12 6.04-88.32 6.98-132.04 12.68-144.69 18.88-215.59 45.58-348.68 86-29.63-53.78-67.41-182.91-83.29-248.86-22.56-93.68-39.73-192.47-44.25-292.56l608.28 1.29-.02 441.46zm176.02 1.76-4.35-13.76c-.12-.94.07-10.91.09-12.62.49-84.96-4.38-386.66 1.96-417.82 18.33-5.42 564.52-6.43 608.3-1.5 3.25 15.5 2.21 21.94-3.16 33.93 1.18 107.79-81.76 455.79-129.19 517-26.41-5.05-77.13-26.8-108.12-36.17-38.04-11.51-74.8-21.49-114.51-30.62-121.71-27.97-175.51-23.67-251.03-38.45zm-869.74 27.59c14.03 41.51 40.63 99.01 50.23 137.26-5.71 4.58-47.44 26.42-101.4 56.82-168.11-20.64-335.78-49.8-498.85-90.43-15.23-29.77-28.26-57.51-38.09-81.1-31.31-75.25-56.09-148.29-76.42-231.08-11.61-47.25-46.86-221.25-36.7-263.53l611.18.72c9.05 49.6 10.13 115.53 17.93 168.45 14.55 99.14 40.37 208.82 72.12 302.9zm1505.31 150.15c8.82-36.19 34.58-87.4 47.74-127.61 46.9-143.25 79.34-271.45 92.22-427.5 4.62-55.97-3.01-65.53 18.16-67.47l600.87.67c11.98 114.52-65.89 381.99-115.01 495.78-5.62 13.01-11.25 25.63-16.91 37.91-181.49 45.37-374.3 84.55-568.88 114.5-22.49-11.9-42.41-21.12-58.19-26.28zm-631.91-1242.23c34.73-7.45 88.65-8.99 127.75-15.02 81.83-12.55 159.11-30.34 236.88-54.86 30.61-9.65 81.56-31 109.52-36.19 25.61 40.18 71.76 199.93 84.8 256.57 35.85 155.91 24.82 162.53 44.47 292.02-7.25 6.37 12.53 5.17-12.8 5.78-64.65.8-577.02 3.48-597.72-2.97l-.05-434.58c1.39-17.68-.93-5.87 7.15-10.77zm-787.54 444.82c-6.42-100.07 44.45-315.18 78.39-419.55l43.13-123.58c36.08 9.01 78.17 25.88 114.44 36.63 142.6 42.24 224.12 48.48 372.25 63.57-2.43 121.74 5.34 341.4-1.39 443.86-102.51 2.24-522.13 4.49-606.83-.94zm-788.01 1.26c-6.83-57.54 24.87-209 38.63-267.36 17.91-75.95 45.22-158.38 75.75-227.55 68.67-155.68 142.4-270.07 234.3-377.58 17.02 9.39 32.85 24.55 47.47 36.2 66.97 53.32 283.79 202.06 352.68 220.22-8.46 37.69-36.04 100.67-49.16 140.74-15.79 48.17-28.39 96.7-40.42 146.39-27.94 115.47-33.2 209.07-47.17 328.95h-612.07zm2212.81-622.46c10.54-10.94 87.58-48.09 106.48-58.99 98.15-56.69 159.31-98.51 248.22-163.47 13.29-9.72 32.11-27.82 49.84-33.22 8.16 16.16 22.31 31.17 33.55 45.45l94.47 134.32c112.08 173.15 229.06 495.31 221.65 698.46l-614.53-2.05c-7.66-121.01-22.27-220.73-48.22-334.44-32.65-143.05-58.77-177.77-91.45-286.06zm-1230.75-75.82c28.6-74.05 140.29-246.75 188.56-312.47 18.71-25.47 33.39-47.08 52.93-71.86l141.91-170.08c9.94-11.68 20.7-18.43 30.04-29.04l-.52 665.85c-112.29 5.2-319.2-46.06-412.92-82.4zm587.63-581.84 61.88 65.25c86.64 92.13 317.38 406.1 344.75 505.18-30.84 7.47-63.31 21.28-95.09 31.2-100.53 31.38-204.43 50.79-311.49 60.32l-.05-661.95zm571.49 495.89c-11.62-10.67-36.38-63.89-46.48-82.93-15.42-29.08-31.78-55.97-47.38-81.49-51.06-83.42-209.4-310.46-284.42-385.25-7.58-7.57-8.44-7.12-14.71-14.25-7.35-8.37-22.41-24.94-25.7-33.28 153.2 24.49 305.22 76.14 430.37 140.1 67.58 34.53 123.07 69.46 178.93 107.94 44.68 30.79 123.87 89.66 157.15 128.31-33.85 36.53-201.68 141.11-255.01 171.78-26.3 15.11-65.65 38.82-92.76 49.08zm-1670.55-216.72c7.26-9.27 9.57-9.56 18.91-17.15 17.65-14.33 23.51-24.24 58.09-50.07l82.59-62.93c157.02-114.59 414.11-224.53 613.23-249.79l-62.94 72.19c-37.32 39.73-146.82 183.62-169.4 217.41-66.94 100.16-135.15 203.19-192.16 322.54-35.73-9.42-156.21-85.41-185.59-105.17-38.42-25.88-137.92-96.3-162.74-127.03z"/>
    <path class="fil1" d="M4179.18 4531.81s-486.71 522.12 159.29 946.89c646 424.76 1513.22 539.81 2433.56 539.81 920.34 0 2495.52-345.12 2690.19-805.3 194.68-460.18-185.82-672.55-185.82-672.55s884.91 318.55 805.28 929.17c-79.64 610.62-1575.16 1194.66-3362.74 1176.96-1787.57-17.69-2761.01-477.87-3132.68-867.24-371.66-389.36-44.23-840.67 168.15-999.97 212.38-159.29 424.77-247.78 424.77-247.78z"/>
  </g>
</svg>
